<?xml version="1.0" standalone="no"?>
<!DOCTYPE svg PUBLIC "-//W3C//DTD SVG 20010904//EN"
 "http://www.w3.org/TR/2001/REC-SVG-20010904/DTD/svg10.dtd">
<svg version="1.0" xmlns="http://www.w3.org/2000/svg"
 width="2100.000000pt" height="2100.000000pt" viewBox="0 0 2100.000000 2100.000000"
 preserveAspectRatio="xMidYMid meet">
<metadata>
Created by potrace 1.14, written by Peter Selinger 2001-2017
</metadata>
<g transform="translate(0.000000,2100.000000) scale(0.100000,-0.100000)"
fill="#000000" stroke="none">
<path d="M9761 16375 c-130 -37 -324 -169 -416 -283 -25 -31 -65 -95 -88 -141
-36 -73 -42 -94 -45 -160 -3 -63 1 -82 18 -109 63 -101 254 -93 439 17 137 81
269 220 334 350 71 143 61 265 -25 316 -42 24 -148 29 -217 10z"/>
<path d="M11985 16233 c-353 -32 -703 -290 -806 -593 -31 -91 -30 -230 1 -315
60 -160 199 -272 383 -312 98 -21 303 -13 411 16 163 43 336 143 449 257 99
101 149 181 186 294 113 344 -106 628 -504 652 -44 3 -98 3 -120 1z"/>
<path d="M7977 15195 c-66 -24 -143 -84 -234 -178 -195 -205 -328 -471 -340
-683 -9 -148 23 -204 117 -204 152 0 380 228 539 539 118 231 142 432 61 513
-32 32 -79 36 -143 13z"/>
<path d="M14060 14577 c-116 -35 -196 -82 -280 -167 -119 -119 -170 -237 -170
-395 0 -158 50 -276 170 -396 125 -126 281 -189 470 -189 189 0 345 63 470
189 120 120 170 238 170 396 0 158 -51 276 -170 395 -131 132 -280 190 -479
189 -80 0 -125 -6 -181 -22z"/>
<path d="M9220 14541 c-159 -49 -321 -214 -382 -389 -33 -95 -33 -258 -1 -318
67 -125 204 -157 359 -84 99 47 215 166 272 280 109 217 86 418 -57 492 -55
29 -133 36 -191 19z"/>
<path d="M11219 13881 c-190 -62 -350 -238 -389 -428 -54 -256 102 -492 345
-522 167 -20 325 38 452 166 241 245 203 635 -75 766 -60 28 -78 32 -172 34
-81 2 -118 -1 -161 -16z"/>
<path d="M6609 13250 c-106 -111 -218 -470 -207 -662 7 -117 45 -148 105 -85
112 117 213 419 213 637 0 156 -35 190 -111 110z"/>
<path d="M7501 13269 c-52 -16 -140 -112 -188 -204 -68 -131 -88 -211 -88
-345 0 -108 2 -118 29 -167 85 -153 259 -74 370 168 49 108 69 197 69 315 0
88 -3 108 -24 150 -38 76 -95 105 -168 83z"/>
<path d="M8980 12505 c-8 -2 -49 -9 -90 -15 -224 -37 -463 -166 -663 -359
-262 -253 -423 -542 -501 -896 -44 -201 -51 -276 -50 -555 0 -285 13 -398 69
-620 105 -415 335 -800 592 -994 114 -86 319 -188 443 -221 228 -59 487 -49
694 29 408 154 720 518 909 1062 155 446 157 1000 5 1459 -185 560 -607 989
-1073 1091 -64 14 -300 28 -335 19z"/>
<path d="M14595 11445 c-158 -35 -292 -107 -415 -222 -94 -88 -146 -161 -200
-277 -61 -131 -75 -199 -75 -371 0 -172 17 -251 85 -390 162 -332 526 -530
891 -486 165 20 305 74 425 165 377 283 472 804 219 1198 -56 87 -190 220
-268 266 -86 52 -204 99 -289 116 -94 19 -289 20 -373 1z"/>
<path d="M6218 11250 c-67 -52 -107 -224 -115 -496 -7 -220 5 -345 43 -466 26
-80 73 -148 104 -148 23 0 67 56 88 111 41 110 54 197 59 409 4 161 2 229 -11
318 -20 134 -55 238 -91 270 -32 27 -45 28 -77 2z"/>
<path d="M12216 11189 c-171 -40 -325 -194 -380 -378 -18 -62 -21 -221 -5
-291 30 -134 145 -284 265 -347 314 -166 695 14 769 364 60 284 -104 568 -374
647 -60 18 -210 20 -275 5z"/>
<path d="M6765 11018 c-51 -52 -80 -125 -96 -245 -26 -196 24 -427 107 -492
38 -30 94 -28 132 4 62 52 100 167 109 330 13 244 -69 445 -181 445 -20 0 -41
-12 -71 -42z"/>
<path d="M6419 8813 c-20 -38 -17 -217 5 -318 50 -222 177 -475 238 -475 71 0
82 156 28 385 -69 293 -215 513 -271 408z"/>
<path d="M7285 8807 c-139 -139 -39 -579 165 -729 81 -60 176 -44 214 35 57
122 39 309 -49 492 -72 150 -164 235 -253 235 -37 0 -50 -6 -77 -33z"/>
<path d="M11135 8377 c-277 -73 -395 -368 -258 -647 71 -147 237 -279 390
-310 78 -17 195 -8 266 20 126 48 225 177 249 326 32 191 -76 417 -254 532
-118 76 -279 108 -393 79z"/>
<path d="M14180 7883 c-273 -31 -492 -209 -555 -450 -8 -31 -15 -94 -15 -138
0 -159 51 -277 170 -395 199 -198 513 -246 779 -118 156 75 287 238 320 396
70 338 -175 656 -540 701 -84 11 -94 11 -159 4z"/>
<path d="M8950 7585 c-89 -41 -140 -128 -140 -244 0 -126 37 -232 126 -357 58
-82 122 -137 213 -182 66 -33 83 -37 150 -36 89 0 123 15 175 76 44 51 59 100
58 193 0 206 -134 420 -324 520 -62 33 -84 39 -148 42 -53 2 -85 -1 -110 -12z"/>
<path d="M7391 7244 c-75 -53 -67 -268 18 -462 107 -244 303 -492 449 -570
107 -57 195 -39 223 45 30 93 -18 307 -110 490 -166 332 -458 582 -580 497z"/>
<path d="M11505 6264 c-122 -19 -252 -83 -325 -160 -163 -172 -160 -428 6
-660 128 -181 322 -311 552 -371 123 -32 310 -36 412 -9 144 38 278 133 329
234 76 149 63 343 -36 512 -50 85 -165 205 -259 270 -98 68 -238 133 -344 160
-83 22 -265 34 -335 24z"/>
<path d="M9349 5700 c-93 -12 -139 -68 -139 -167 0 -121 80 -264 221 -397 142
-133 291 -205 427 -206 87 0 131 16 162 60 91 128 -30 386 -262 560 -155 117
-289 166 -409 150z"/>
</g>
</svg>
